<svg width="112" height="39" viewBox="0 0 112 39" fill="none" xmlns="http://www.w3.org/2000/svg">
<path d="M31.2749 7.8428C27.4022 7.8428 21.9311 8.16683 19.1352 10.9613C17.9247 12.1718 17.3202 14.1451 17.4771 16.3787C17.4975 16.6737 17.6937 16.925 17.9756 17.0181C18.256 17.1096 18.5641 17.0239 18.7559 16.7987C20.3108 14.9691 22.2435 13.5029 24.5046 12.4406C24.6964 12.3491 24.9231 12.3418 25.1295 12.4145C25.3111 12.4799 25.4535 12.6033 25.5276 12.7618C25.6816 13.0873 25.6322 13.516 25.1207 13.7572C25.0917 13.7717 25.0655 13.7906 25.0365 13.8037C25.0263 13.8081 25.0147 13.8066 25.006 13.811C19.4346 16.4296 16.6954 20.9983 15.4514 25.6964C14.5446 19.814 12.6294 16.3511 10.8202 14.2251C9.51095 12.5279 8.22341 11.6283 7.47943 11.1198C7.34136 11.0253 6.92435 10.7405 6.7514 10.5675C6.46803 10.2842 6.46803 9.8235 6.7514 9.54013C7.03477 9.2582 7.49687 9.2582 7.81218 9.57208C7.88923 9.6404 8.01272 9.72759 8.16966 9.83222L8.29902 9.91941C9.35108 10.6402 11.31 11.9785 13.0479 14.8601C13.2034 15.1173 13.5042 15.2554 13.7963 15.2002C14.0928 15.1479 14.3252 14.9197 14.3834 14.6247C14.7627 12.6877 14.5927 9.81328 12.8649 8.0855C10.069 5.2925 4.59789 4.96847 0.726671 4.96847C0.32553 4.9684 0 5.29393 0 5.695C0 9.56765 0.324032 15.0388 3.11846 17.8347C4.28387 19.0001 6.08147 19.5233 7.86736 19.5233C9.32486 19.5233 10.7533 19.1585 11.8476 18.5264C13.3399 21.6187 14.5316 26.2383 14.5316 33.305C14.5316 33.7061 14.8571 34.0316 15.2582 34.0316C15.6592 34.0316 15.9848 33.7061 15.9848 33.305C15.9848 29.3626 16.6605 24.6311 19.173 20.7366C20.18 21.7205 21.9137 22.3439 23.8347 22.402C23.9306 22.4049 24.0251 22.4063 24.1195 22.4063C26.0711 22.4063 27.796 21.7946 28.8815 20.7076C31.6773 17.9117 31.9999 12.4405 31.9999 8.56783C32.0015 8.16683 31.6774 7.8428 31.2749 7.8428Z" fill="#00B307"/>
<path d="M55.808 25.956H46.496L44.896 30.5H41.088L49.056 8.228H53.28L61.248 30.5H57.408L55.808 25.956ZM54.784 22.98L51.168 12.644L47.52 22.98H54.784ZM71.0165 8.26C73.3845 8.26 75.4538 8.71867 77.2245 9.636C79.0165 10.532 80.3925 11.8333 81.3525 13.54C82.3338 15.2253 82.8245 17.1987 82.8245 19.46C82.8245 21.7213 82.3338 23.684 81.3525 25.348C80.3925 27.012 79.0165 28.292 77.2245 29.188C75.4538 30.0627 73.3845 30.5 71.0165 30.5H63.7525V8.26H71.0165ZM71.0165 27.524C73.6192 27.524 75.6138 26.82 77.0005 25.412C78.3872 24.004 79.0805 22.02 79.0805 19.46C79.0805 16.8787 78.3872 14.8627 77.0005 13.412C75.6138 11.9613 73.6192 11.236 71.0165 11.236H67.4005V27.524H71.0165ZM108.904 8.26V30.5H105.256V15.268L98.472 30.5H95.944L89.128 15.268V30.5H85.48V8.26H89.416L97.224 25.7L105 8.26H108.904Z" fill="#002603"/>
</svg>
